<?xml version="1.0" standalone="no"?>
<!DOCTYPE svg PUBLIC "-//W3C//DTD SVG 20010904//EN"
 "http://www.w3.org/TR/2001/REC-SVG-20010904/DTD/svg10.dtd">
<svg version="1.0" xmlns="http://www.w3.org/2000/svg"
 width="76.000000pt" height="62.000000pt" viewBox="0 0 76.000000 62.000000"
 preserveAspectRatio="xMidYMid meet">

<g transform="translate(0.000000,62.000000) scale(0.100000,-0.100000)"
fill="#000000" stroke="none">
<path d="M230 436 c0 -28 24 -51 45 -42 20 7 19 22 -5 46 -27 27 -40 25 -40
-4z"/>
<path d="M496 445 c-7 -20 2 -42 21 -49 34 -13 45 20 15 47 -23 21 -28 21 -36
2z"/>
<path d="M168 263 c7 -3 16 -2 19 1 4 3 -2 6 -13 5 -11 0 -14 -3 -6 -6z"/>
<path d="M200 230 c0 -45 31 -95 72 -116 50 -26 168 -25 204 2 42 31 63 64 70
111 l7 43 -177 -3 -176 -2 0 -35z m200 -70 c0 -7 6 -7 19 0 11 5 32 10 48 9
22 0 16 -5 -32 -24 -50 -19 -61 -21 -68 -9 -4 8 -5 19 -2 24 8 13 35 13 35 0z"/>
</g>
</svg>
